<?xml version="1.0" encoding="UTF-8" standalone="no"?>
<!-- Created with Inkscape (http://www.inkscape.org/) -->

<svg
   xmlns:dc="http://purl.org/dc/elements/1.1/"
   xmlns:cc="http://creativecommons.org/ns#"
   xmlns:rdf="http://www.w3.org/1999/02/22-rdf-syntax-ns#"
   xmlns:svg="http://www.w3.org/2000/svg"
   xmlns="http://www.w3.org/2000/svg"
   xmlns:sodipodi="http://sodipodi.sourceforge.net/DTD/sodipodi-0.dtd"
   xmlns:inkscape="http://www.inkscape.org/namespaces/inkscape"
   width="192"
   height="192"
   viewBox="0 0 192 192"
   id="svg4146"
   version="1.1"
   inkscape:version="0.91 r13725"
   sodipodi:docname="chef_hat.svg">
  <defs
     id="defs4148" />
  <sodipodi:namedview
     id="base"
     pagecolor="#ffffff"
     bordercolor="#666666"
     borderopacity="1.0"
     inkscape:pageopacity="0.0"
     inkscape:pageshadow="2"
     inkscape:zoom="1.4"
     inkscape:cx="31.508254"
     inkscape:cy="64.6753"
     inkscape:document-units="px"
     inkscape:current-layer="layer1"
     showgrid="false"
     fit-margin-top="0"
     fit-margin-left="0"
     fit-margin-right="0"
     fit-margin-bottom="0"
     inkscape:window-width="1399"
     inkscape:window-height="855"
     inkscape:window-x="41"
     inkscape:window-y="1"
     inkscape:window-maximized="1"
     units="px" />
  <metadata
     id="metadata4151">
    <rdf:RDF>
      <cc:Work
         rdf:about="">
        <dc:format>image/svg+xml</dc:format>
        <dc:type
           rdf:resource="http://purl.org/dc/dcmitype/StillImage" />
        <dc:title></dc:title>
      </cc:Work>
    </rdf:RDF>
  </metadata>
  <g
     inkscape:label="Layer 1"
     inkscape:groupmode="layer"
     id="layer1"
     transform="translate(365.81491,-638.93005)">
    <g
       transform="matrix(0.19591981,0,0,0.19591981,-365.8627,636.97078)"
       id="g6">
      <g
         transform="matrix(0.1,0,0,-0.1,0,511)"
         id="g8">
        <path
           d="M 5785.8,4991.7 C 5584.1,4962 5323,4879 5135.1,4780.1 4994.7,4708.9 4917.5,4651.5 4785,4519 c -93,-93 -187.9,-191.9 -207.7,-221.5 l -37.6,-53.4 -138.5,39.6 c -314.5,91 -757.5,67.2 -1058.2,-59.3 -363.9,-152.3 -688.3,-488.6 -785.2,-812.9 -35.6,-118.7 -45.5,-369.9 -19.8,-516.2 l 15.8,-93 -114.7,-13.8 c -286.8,-35.6 -603.3,-182 -814.9,-377.8 -174.1,-160.2 -271,-308.6 -344.2,-520.2 -53.4,-152.3 -57.4,-184 -49.4,-375.8 5.9,-138.5 21.7,-247.2 47.5,-320.4 C 1438.3,741.4 1865.5,411 2413.4,320.1 l 148.3,-25.7 5.9,-1157.1 4,-1159.1 47.5,-43.5 49.4,-45.5 2320.1,-9.9 2320.1,-11.9 43.5,49.4 45.5,47.5 4,1174.9 5.9,1174.9 69.2,17.8 c 413.4,106.8 676.5,253.2 919.7,512.3 160.2,170.1 249.2,310.5 322.4,514.3 47.5,130.5 53.4,170.1 53.4,421.3 -2,249.2 -5.9,290.8 -53.4,409.4 -148.3,389.6 -490.5,733.8 -892,898 -114.7,47.5 -132.5,61.3 -124.6,96.9 65.3,243.3 55.4,540 -25.7,773.4 -247.1,698 -1073.9,1150.9 -1890.8,1034.2 z m 579.6,-326.3 c 310.5,-63.3 615.1,-233.4 803,-447 112.7,-128.6 217.6,-332.3 251.2,-484.6 29.7,-148.3 13.8,-379.8 -39.6,-530.1 -77.1,-215.6 -47.5,-280.9 150.3,-338.2 419.3,-120.7 749.6,-411.4 896,-789.2 67.3,-172.1 65.3,-443.1 -2,-623 -170.1,-452.9 -589.4,-755.6 -1167,-840.6 -152.3,-21.8 -144.4,4 -156.3,-666.6 l -9.9,-599.3 -2110.5,-5.9 -2112.4,-4 0,591.4 0,593.4 -47.5,37.6 c -35.6,27.7 -94.9,41.5 -213.6,49.4 -569.6,41.6 -981,358 -1068.1,820.8 -47.5,249.2 45.5,502.4 259.1,716 227.5,227.5 496.5,334.3 858.4,344.2 178,5.9 201.8,9.9 235.4,51.4 47.5,57.4 45.5,124.6 -7.9,257.1 -33.6,85 -43.5,152.3 -43.5,306.6 -2,176 3.9,211.6 51.4,312.5 63.3,134.5 235.4,322.4 395.6,429.2 306.6,203.7 751.6,241.3 1153.1,96.9 211.6,-77.1 231.4,-69.2 356,118.7 213.6,324.4 575.6,549.9 998.9,621.1 122.8,19.7 431.4,11.8 569.9,-17.8 z m 721.9,-6058.5 c -4,-233.4 -7.9,-425.3 -9.9,-427.2 -4,-2 -949.4,0 -2102.5,7.9 l -2096.6,11.9 -5.9,421.3 -4,419.3 2110.5,-4 2112.4,-5.9 -4,-423.3 z"
           id="path10"
           inkscape:connector-curvature="0" />
        <path
           d="m 3894.9,3326.3 c -259.1,-73.2 -470.7,-304.6 -472.7,-512.3 0,-81.1 69.2,-154.3 148.3,-154.3 63.3,0 142.4,69.2 158.2,138.5 19.8,89 96.9,170.1 197.8,209.7 73.2,27.7 130.5,31.7 300.6,21.8 201.7,-9.9 211.6,-7.9 257.1,37.6 65.3,65.3 57.4,176 -15.8,231.4 -43.5,31.7 -93,39.6 -267,45.5 -140.3,5.8 -247.2,-2.1 -306.5,-17.9 z"
           id="path12"
           inkscape:connector-curvature="0" />
        <path
           d="m 3881.1,-2910.1 c -221.5,-59.3 -395.6,-150.3 -666.6,-352.1 -201.8,-148.3 -464.8,-276.9 -656.7,-320.4 -211.6,-45.5 -466.8,-31.7 -640.8,39.6 -160.2,63.3 -215.6,65.3 -271,5.9 -59.3,-61.3 -55.4,-128.6 15.8,-282.8 166.1,-365.9 464.8,-676.5 797.1,-830.7 213.6,-96.9 397.6,-132.5 686.3,-132.5 609.2,-2 1242.1,193.8 1707,526.1 l 152.3,110.8 154.3,-110.8 c 397.6,-284.8 902,-462.8 1483.5,-522.2 377.8,-39.6 751.6,31.6 1032.5,193.8 255.2,150.3 534,462.8 664.6,745.7 73.2,160.2 79.1,227.5 27.7,294.7 -53.4,67.3 -108.8,69.2 -274.9,2 -174.1,-71.2 -429.2,-85.1 -640.8,-39.6 -195.8,43.5 -451,172.1 -696.2,348.1 -219.5,160.2 -454.9,280.9 -632.9,326.4 -138.4,35.6 -419.3,39.6 -567.7,7.9 -134.5,-27.7 -379.7,-140.4 -474.7,-217.6 l -73.2,-57.4 -96.9,69.2 c -120.7,85 -274.9,156.3 -429.2,197.8 -146.6,37.6 -457.1,37.6 -599.5,-1.9 z m 506.3,-294.8 c 249.2,-59.3 421.3,-178 454.9,-312.5 27.7,-104.8 83.1,-158.2 164.2,-156.3 81.1,2 132.5,51.4 160.2,156.3 25.7,102.9 94.9,166.1 267,249.2 356,166.2 714,98.9 1133.4,-213.6 415.4,-308.5 868.3,-468.8 1238.2,-439.1 81.1,5.9 126.6,2 126.6,-11.9 0,-9.9 -73.2,-93 -162.2,-180 -282.8,-278.9 -575.6,-383.7 -1002.8,-362 -415.4,19.8 -791.2,118.7 -1149.2,302.6 -114.7,57.4 -261.1,150.3 -326.4,203.8 -203.7,172.1 -261.1,205.7 -316.5,191.8 -27.7,-7.9 -98.9,-57.3 -160.2,-112.7 -276.9,-251.2 -710.1,-449 -1184.8,-543.9 -122.6,-25.7 -269,-35.6 -474.7,-35.6 -271,-2 -308.6,4 -441.1,51.4 -251.2,91 -478.7,257.1 -615.1,447 l -43.5,61.3 136.5,-11.9 c 403.5,-33.6 842.6,128.6 1307.4,484.6 122.6,93 338.2,197.8 472.7,229.5 148.4,37.6 263.1,37.6 415.4,2 z"
           id="path14"
           inkscape:connector-curvature="0" />
      </g>
    </g>
  </g>
</svg>
